OpenSim_Sub09_EMGStiffKnee_GRF.mot
version=1
nRows=57
nColumns=19
inDegrees=no
endheader
time	lFx	lFy	lFz	lCOPx	lCOPy	lCOPz	rFx	rFy	rFz	rCOPx	rCOPy	rCOPz	lMx	lMy	lMz	rMx	rMy	rMz
56.88000000	23.49574053	706.26900550	61.68415914	0.51378447	0	-0.73438160	-0.05546036	-0.06141571	0.14169396	0.00000006	0	-0.00000005	0	-1.03545328	0	0	0.00000023	0.00000000
56.89000000	27.29037055	711.89635153	61.15346878	0.50666095	0	-0.73416983	-0.05316954	-0.07616927	0.17023257	-0.00000006	0	0.00000004	0	-0.98196742	0	0	-0.00000012	-0.00000000
56.90000000	31.09666012	717.76725095	60.65310457	0.49956830	0	-0.73398183	-0.04061942	-0.07424143	0.21565140	-0.00000006	0	0.00000004	0	-0.96259524	0	0	-0.00000016	-0.00000000
56.91000000	34.84786328	723.72018917	60.26550399	0.49242923	0	-0.73377828	-0.01874534	-0.05186647	0.16122284	-0.00000003	0	0.00000003	0	-0.99846461	0	0	-0.00000009	-0.00000000
56.92000000	38.63742864	729.53040485	59.88593645	0.48528637	0	-0.73359195	-0.01965880	-0.02310710	0.11112299	-0.00000001	0	0.00000001	0	-1.10158054	0	0	-0.00000003	0.00000000
56.93000000	42.58322883	735.02562001	59.44138743	0.47828491	0	-0.73345809	-0.03608815	-0.01588966	0.08856356	-0.00000000	0	0.00000000	0	-1.25759480	0	0	-0.00000000	0.00000000
56.94000000	46.59040462	739.99408916	58.90181983	0.47159595	0	-0.73339481	-0.05405139	-0.08890934	0.04740462	0.00000000	0	-0.00000000	0	-1.41984559	0	0	0.00000001	-0.00000000
56.95000000	50.55981353	744.02901510	58.18725103	0.46500441	0	-0.73341078	-0.08140537	-0.22726329	0.05298819	0.00000000	0	-0.00000000	0	-1.51612018	0	0	0.00000001	-0.00000000
56.96000000	54.47922289	746.61606963	57.32199305	0.45840774	0	-0.73349903	-0.09783218	-0.27463786	0.06437055	0.00000000	0	-0.00000000	0	-1.56616674	0	0	0.00000000	-0.00000000
56.97000000	58.28720760	747.38699737	56.41972641	0.45187207	0	-0.73363213	-0.10172938	-0.20234021	0.09825310	0.00000000	0	-0.00000000	0	-1.64352676	0	0	0.00000000	-0.00000000
56.98000000	61.77076420	746.35809868	55.59764836	0.44558638	0	-0.73378993	-0.11551322	-0.15282699	0.12362287	0.00000000	0	-0.00000000	0	-1.78370996	0	0	-0.00000000	0.00000000
56.99000000	64.86378664	743.85210298	54.91639853	0.43950827	0	-0.73395910	-0.15084943	-0.20553180	0.12223104	-0.00000001	0	0.00000000	0	-1.93446405	0	0	-0.00000001	-0.00000000
57	67.82111999	740.15318046	54.39189357	0.43349064	0	-0.73414058	-0.20719583	-0.25262439	0.11914059	-0.00000003	0	0.00000002	0	-2.03246409	0	0	-0.00000001	-0.00000000
57.01000000	70.80692082	735.38233983	54.09871961	0.42739073	0	-0.73432144	-0.25536196	-0.26197019	0.11912705	-0.00000007	0	0.00000004	0	-2.07923335	0	0	0.00000000	0.00000000
57.02000000	73.79394922	729.67862088	54.08151844	0.42120703	0	-0.73447159	-0.26904647	-0.25748636	0.14157067	-0.00000010	0	0.00000005	0	-2.03528163	0	0	0.00000003	-0.00000000
57.03000000	76.61090670	723.26183459	54.35883277	0.41516283	0	-0.73459589	-0.23666128	-0.29204868	0.15955157	-0.00000004	0	0.00000002	0	-1.95275581	0	0	0.00000008	-0.00000000
57.04000000	79.26039334	716.12931046	54.79095603	0.40913416	0	-0.73470205	-0.19014766	-0.37876522	0.12742318	0.00000028	0	-0.00000014	0	-1.88977425	0	0	0.00000014	-0.00000000
57.05000000	81.91293961	708.34267085	55.21631939	0.40286636	0	-0.73474569	-0.16216376	-0.46385612	0.10409795	0.00000099	0	-0.00000052	0	-1.78359336	0	0	0.00000011	0.00000000
57.06000000	84.71236427	700.15933501	55.59523546	0.39646625	0	-0.73471096	-0.13296566	-0.48277707	0.11469056	0.00000197	0	-0.00000104	0	-1.61102814	0	0	-0.00000020	0.00000000
57.07000000	87.52879631	691.89505197	55.93306187	0.39031650	0	-0.73460387	-0.09464805	-0.46505990	0.12014265	0.00000227	0	-0.00000122	0	-1.37500069	0	0	-0.00000102	0.00000000
57.08000000	90.24007268	683.59271494	56.17989723	0.38446131	0	-0.73445706	-0.09385589	-0.40882447	0.11634388	-0.00000052	0	0.00000022	0	-1.06437142	0	0	-0.00000237	-0.00000000
57.09000000	92.87756855	675.00325357	56.24777289	0.37857043	0	-0.73432737	-0.09240121	-0.36869228	0.16892173	-0.00001019	0	0.00000530	0	-0.68625935	0	0	-0.00000338	0.00000000
57.10000000	95.50062530	665.87260779	56.12618703	0.37246716	0	-0.73422305	-0.08545128	-0.36703245	0.21569434	-0.00002919	0	0.00001539	0	-0.29190521	0	0	-0.00000135	-0.00000000
57.11000000	98.01129201	656.13177967	55.89410210	0.36639400	0	-0.73409247	-0.07525543	-0.41019419	0.21061990	-0.00005067	0	0.00002698	0	0.07138682	0	0	0.00000868	-0.00000000
57.12000000	100.31075255	645.53196548	55.59695686	0.36027900	0	-0.73388094	-0.08061255	-0.40843157	0.21977196	-0.00004429	0	0.00002415	0	0.36628446	0	0	0.00003166	0.00000000
57.13000000	102.42953706	633.70550089	55.10506628	0.35413530	0	-0.73360322	-0.08701015	-0.34795882	0.22038148	0.00005665	0	-0.00002841	0	0.56950546	0	0	0.00006393	-0.00000000
57.14000000	104.34194665	620.28601958	54.23573388	0.34799124	0	-0.73330047	-0.08296318	-0.20665911	0.19422699	0.00034122	0	-0.00017850	0	0.78312291	0	0	0.00007548	0.00000000
57.15000000	105.87733248	604.82176010	52.95417515	0.34203570	0	-0.73299191	-0.09229949	-0.01683343	0.20129184	0.00082894	0	-0.00043828	0	1.06353737	0	0	-0.00001150	-0.00000000
57.16000000	106.69452655	586.51496608	51.23511301	0.33629525	0	-0.73265599	-0.10439513	0.17146952	0.18775461	0.00124175	0	-0.00066376	0	1.39783975	0	0	-0.00032142	0.00000000
57.17000000	106.62585811	564.29343276	48.96309601	0.33045473	0	-0.73231340	-0.11776242	0.31428966	0.16139531	0.00065509	0	-0.00036846	0	1.78738542	0	0	-0.00093955	-0.00000000
57.18000000	105.55502724	537.24602299	46.06817922	0.32414312	0	-0.73194760	-0.08830363	0.11538549	0.21459115	-0.00270475	0	0.00138983	0	2.24207500	0	0	-0.00165518	-0.00000000
57.19000000	103.18444943	504.93470792	42.63515930	0.31733193	0	-0.73145268	0.07073978	-1.05618882	0.27793005	-0.01075746	0	0.00564845	0	2.62791247	0	0	-0.00150031	-0.00000000
57.20000000	99.02949852	467.47493129	38.76367667	0.31031566	0	-0.73073397	0.40226840	-3.98765261	0.28299496	-0.02264952	0	0.01200777	0	2.83871534	0	0	0.00168699	0.00000000
57.21000000	92.59544894	425.08391130	34.49355663	0.30333345	0	-0.72983638	0.71720467	-8.26733595	0.17796217	-0.02849076	0	0.01531189	0	2.85860734	0	0	0.01084927	-0.00000000
57.22000000	83.50741338	378.42488289	30.15296146	0.29747315	0	-0.72906789	0.46552330	-10.04987314	-0.13303861	-0.00126502	0	0.00130492	0	2.63401373	0	0	0.02678956	0.00000000
57.23000000	71.81391176	328.60041731	26.15186771	0.29360479	0	-0.72926778	-1.43894581	0.64735993	-0.72728323	0.10416404	0	-0.05406929	0	2.18653025	0	0	0.04080644	0
57.24000000	58.09190214	277.45617659	22.72104532	0.29169634	0	-0.73185989	-6.34639636	40.23606224	-1.43194047	0.32342032	0	-0.17033863	0	1.58629218	0	0	0.02323846	0.00000000
57.25000000	43.41630170	227.41593855	19.95204615	0.29077793	0	-0.73826840	-14.59619714	121.95653017	-1.52656765	0.59953484	0	-0.31840364	0	0.88986929	0	0	-0.08361335	0.00000000
57.26000000	29.12860584	181.00851262	17.81888353	0.28939694	0	-0.74836171	-30.43079517	239.83800817	0.22530815	0.79395761	0	-0.42220679	0	0.13192348	0	0	-0.34875409	0.00000000
57.27000000	16.22095186	140.14486390	16.19153359	0.28486023	0	-0.75653031	-58.75373954	370.77668328	2.00690877	0.88125884	0	-0.46610970	0	-0.57531018	0	0	-0.76951319	0
57.28000000	5.21377894	105.50744453	14.89209237	0.27314088	0	-0.74532131	-96.06976496	492.17842759	-1.01089652	0.90352141	0	-0.47309421	0	-1.12840998	0	0	-0.98613826	0
57.29000000	-3.71726863	76.63975646	13.64683271	0.24837629	0	-0.68205323	-129.55557401	589.17886540	-9.89812450	0.90106447	0	-0.46600327	0	-1.38043865	0	0	-1.22619116	0
57.30000000	-9.59187049	52.24556661	11.99133208	0.20053594	0	-0.53294474	-152.11423861	655.76935131	-23.15136277	0.89397849	0	-0.45717780	0	-1.18445497	0	0	-1.52416633	-0.00000000
57.31000000	-10.78812807	31.41904120	9.44251076	0.12683207	0	-0.31397046	-166.18434189	696.76572979	-38.98482391	0.88774784	0	-0.45054374	0	-0.67799119	0	0	-1.65748039	0
57.32000000	-7.14771282	14.89229374	6.32362249	0.05302728	0	-0.11912111	-176.23847293	724.58525929	-56.45057441	0.88295553	0	-0.44601264	0	-0.23468024	0	0	-1.71576639	0.00000000
57.33000000	-1.91699558	4.27301204	3.81401294	0.00932869	0	-0.01329375	-186.24128724	749.16126284	-74.28241856	0.87947551	0	-0.44274211	0	-0.01051157	0	0	-1.69488492	0
57.34000000	1.77274312	-0.58741012	2.62549996	-0.00645909	0	0.02069088	-194.79085498	770.51624963	-88.70096329	0.87709555	0	-0.44036356	0	0.05341064	0	0	-1.77431276	0.00000000
57.35000000	3.41727456	-1.85639128	2.12280643	-0.00767064	0	0.02019692	-199.19037422	786.78172192	-96.31850142	0.87493973	0	-0.43864365	0	0.04585781	0	0	-2.26443512	0.00000000
57.36000000	3.79629747	-1.62277944	2.01035165	-0.00448441	0	0.01083597	-199.13980618	799.82691017	-97.84850575	0.87187207	0	-0.43747249	0	0.02290740	0	0	-3.01205039	0
57.37000000	3.69433271	-1.08627154	1.98480026	-0.00159461	0	0.00341488	-193.85265532	810.22709918	-95.96787710	0.86747513	0	-0.43669393	0	0.00638542	0	0	-3.73776717	0
57.38000000	3.49300315	-0.69477646	1.89776541	-0.00010371	0	-0.00010293	-183.05901961	814.38330191	-92.82720064	0.86164953	0	-0.43613723	0	-0.00089013	0	0	-4.42854517	0.00000000
57.39000000	3.32729211	-0.49750741	1.86068045	0.00033687	0	-0.00098361	-167.73584872	809.24256823	-89.58386675	0.85491634	0	-0.43568241	0	-0.00240203	0	0	-4.93956162	-0.00000000
57.40000000	3.23990988	-0.41685910	1.76049293	0.00029910	0	-0.00076632	-150.10008425	794.84841512	-85.95554781	0.84781041	0	-0.43519676	0	-0.00170294	0	0	-5.25757796	0
57.41000000	3.22141368	-0.28318700	1.69635021	0.00015244	0	-0.00035878	-132.42691418	772.73451296	-81.42736970	0.84037932	0	-0.43462806	0	-0.00074027	0	0	-5.57456815	0
57.42000000	3.22959040	-0.11880993	1.63986833	0.00004409	0	-0.00008733	-116.34505229	745.04898828	-76.55752798	0.83270147	0	-0.43401139	0	-0.00014807	0	0	-5.75793406	0.00000000
57.43000000	3.24136195	-0.04648194	1.59255465	-0.00000463	0	0.00002417	-102.49736955	714.55986714	-72.27417234	0.82526579	0	-0.43330266	0	0.00007578	0	0	-5.79345536	0.00000000
57.44000000	3.24974598	-0.03364487	1.59256174	-0.00001537	0	0.00004253	-90.55522239	683.92229199	-69.17636319	0.81818678	0	-0.43245203	0	0.00010018	0	0	-5.89391479	-0.00000000
